<?xml version="1.0" standalone="no"?>
<!DOCTYPE svg PUBLIC "-//W3C//DTD SVG 20010904//EN"
 "http://www.w3.org/TR/2001/REC-SVG-20010904/DTD/svg10.dtd">
<svg version="1.0" xmlns="http://www.w3.org/2000/svg"
 width="1024.000000pt" height="1024.000000pt" viewBox="0 0 1024.000000 1024.000000"
 preserveAspectRatio="xMidYMid meet">
<metadata>
Created by potrace 1.14, written by Peter Selinger 2001-2017
</metadata>
<g transform="translate(0.000000,1024.000000) scale(0.100000,-0.100000)"
fill="#000000" stroke="none">
<path d="M0 5120 l0 -5120 5120 0 5120 0 0 5120 0 5120 -5120 0 -5120 0 0
-5120z m8184 4054 c8 -20 8 -642 0 -671 -5 -19 -13 -23 -50 -23 -63 0 -147
-20 -161 -39 -8 -11 -12 -59 -13 -148 l0 -133 -84 0 -84 0 -4 -187 c-3 -104
-1 -195 4 -205 6 -14 26 -16 123 -17 l115 -1 0 45 0 45 95 0 95 0 2 188 3 187
103 3 102 3 0 -271 0 -270 -110 0 -110 0 0 -190 0 -189 -47 -27 c-55 -32 -83
-53 -83 -66 0 -4 86 -8 190 -8 l190 0 0 85 0 85 78 0 c121 0 122 -1 122 -171
0 -159 15 -140 -115 -143 l-70 -1 -3 -56 -3 -56 -112 -6 c-62 -4 -151 -7 -200
-7 l-87 0 3 -49 c3 -31 0 -51 -7 -54 -6 -2 -83 -5 -171 -6 -88 -2 -163 -5
-168 -8 -5 -3 -8 -26 -7 -52 1 -25 1 -61 1 -78 l-1 -33 -165 0 -165 0 0 -93 0
-94 -437 -7 c-256 -4 -440 -3 -446 3 -5 5 -7 70 -5 145 2 75 0 136 -4 136 -3
0 -20 -17 -37 -39 -27 -34 -38 -40 -86 -46 l-55 -6 0 -95 0 -94 -40 0 -40 0 0
-215 0 -215 -109 0 c-59 0 -121 -4 -137 -10 -16 -5 -54 -11 -84 -12 l-55 -3
-3 -124 -3 -124 -44 6 -45 7 0 -110 0 -110 -77 -1 c-105 -1 -132 -4 -143 -15
-5 -5 -11 -106 -12 -224 l-3 -215 -117 -3 -118 -3 0 -133 0 -133 -37 -7 c-21
-3 -64 -6 -95 -6 l-58 0 0 -105 0 -105 -100 0 -100 0 -1 -77 c0 -91 -8 -186
-16 -193 -2 -3 -35 -5 -71 -5 l-67 0 -5 -40 -5 -40 -92 -3 -93 -3 0 -58 c0
-70 -1 -71 -111 -71 l-79 0 0 -90 c0 -64 -4 -92 -12 -95 -32 -10 -201 -17
-393 -16 -382 3 -568 1 -572 -3 -3 -3 -2 -86 2 -185 l8 -181 94 0 94 0 -3 -52
-3 -53 -185 3 c-102 1 -204 5 -227 8 l-43 5 0 95 0 94 -49 0 c-48 0 -48 0 -55
-38 -3 -20 -6 -92 -6 -159 l0 -123 104 0 c57 0 111 -3 120 -6 13 -5 16 -24 16
-99 l0 -93 72 -7 c77 -8 88 -15 130 -88 21 -37 22 -37 85 -37 l63 0 0 -135 0
-135 -112 -2 c-62 0 -143 -1 -180 -1 l-68 1 -1 -41 c-4 -114 4 -102 -67 -105
-55 -3 -69 1 -108 25 l-44 28 0 90 c0 50 -3 107 -6 127 l-7 38 -124 0 -125 0
-83 75 -82 75 -7 -90 c-4 -50 -4 -95 -1 -100 3 -6 16 -10 28 -10 12 0 43 -8
70 -17 l47 -17 0 -61 c0 -61 0 -62 45 -94 58 -41 92 -86 100 -133 l7 -38 -55
0 c-39 0 -59 5 -64 15 -5 9 -36 18 -79 24 -109 16 -104 10 -104 111 l0 87 -82
6 c-49 4 -85 12 -90 19 -4 7 -8 91 -8 186 0 119 -3 171 -11 167 -5 -4 -45 -7
-87 -7 -42 -1 -66 -3 -52 -5 14 -3 30 -9 37 -14 7 -6 12 -6 15 0 1 5 21 6 43
2 l40 -6 0 -54 c0 -33 -5 -55 -12 -58 -24 -10 -138 -8 -149 2 -6 6 -14 30 -18
55 -6 40 -5 43 7 26 13 -18 14 -18 20 3 3 11 1 19 -4 15 -5 -3 -9 5 -9 16 0
16 -4 20 -16 16 -8 -3 -12 -2 -9 3 3 5 1 12 -5 16 -5 3 -10 42 -10 86 l0 79
-65 0 -65 0 0 340 c0 187 3 339 8 339 19 -3 33 2 28 10 -4 5 4 7 16 3 14 -3
19 -2 14 6 -5 9 -1 10 16 3 13 -4 29 -6 36 -4 6 3 12 -1 13 -9 0 -7 4 -4 9 7
5 11 9 14 9 8 1 -7 5 -13 11 -13 5 0 11 60 12 148 l3 147 93 -4 92 -3 0 126 0
126 90 0 90 0 0 70 0 70 88 -6 c104 -6 117 0 141 72 15 45 19 49 51 52 98 7
100 8 100 62 l0 50 -95 0 -95 0 0 115 0 114 -507 0 c-280 -1 -520 -3 -535 -6
l-28 -5 0 -179 0 -179 -95 0 -95 0 0 320 0 321 195 -3 195 -3 0 237 0 237 82
3 83 3 0 105 0 105 163 3 162 2 0 100 0 100 79 0 79 0 12 35 c16 48 52 64 162
73 l91 7 12 40 c6 22 19 55 29 73 16 32 17 32 91 32 l75 0 0 95 0 95 114 0
115 0 3 48 3 47 67 3 c67 3 68 3 97 45 66 95 69 97 178 97 l98 0 14 78 c7 42
16 107 18 145 l5 67 84 0 84 0 0 -165 0 -165 -82 0 c-122 -1 -131 -10 -138
-137 l-5 -98 -77 -3 -78 -3 0 -94 0 -95 -59 0 -58 0 -7 -52 c-3 -29 -6 -79 -6
-110 l0 -58 155 0 155 0 0 115 0 115 120 0 120 0 0 125 0 125 110 0 110 0 0
-119 c0 -66 -3 -126 -6 -135 -5 -13 -24 -16 -108 -16 l-102 0 4 -96 c6 -150
11 -144 -111 -144 l-103 0 4 -89 c5 -106 13 -101 -160 -101 l-118 0 0 -110 0
-110 -46 0 -47 0 7 -37 c3 -21 6 -75 6 -120 l0 -83 75 0 76 0 -3 -107 -3 -108
-140 -3 c-81 -1 -142 -7 -146 -13 -8 -14 -11 -108 -3 -141 l6 -28 124 0 124 0
1 -42 c2 -66 12 -92 39 -98 l25 -6 0 -302 c0 -258 -2 -304 -15 -312 -10 -7 23
-10 98 -10 l112 0 2 28 c1 15 2 65 2 111 l1 84 198 -2 197 -2 0 105 0 106 90
0 90 0 0 85 0 84 93 3 92 3 0 115 0 115 93 3 92 3 0 123 0 123 47 7 c26 3 69
3 95 0 l48 -7 2 499 c1 275 1 545 -1 602 l-3 102 91 0 91 0 0 95 0 95 175 0
174 0 3 88 3 87 59 3 59 3 -5 115 -5 114 138 0 139 0 0 105 0 105 100 0 100 0
0 170 0 170 110 0 110 0 0 190 0 190 116 0 116 0 -7 130 -8 130 105 0 104 0
-3 -177 c-1 -98 -3 -183 -3 -190 0 -8 -23 -10 -77 -7 -43 3 -84 7 -90 9 -10 3
-13 -49 -15 -228 l-3 -232 -118 3 -118 3 3 -219 c2 -121 1 -223 -2 -226 -4 -3
-52 -6 -108 -7 l-102 -1 0 -197 0 -197 99 -3 c120 -3 117 -7 106 145 l-7 104
111 0 111 0 0 120 0 120 100 0 100 0 0 135 0 135 120 0 120 0 0 135 0 135 145
0 145 0 0 190 0 189 113 3 112 3 3 128 3 127 144 0 145 0 2 178 3 177 113 3
112 3 0 168 c0 92 3 171 7 174 3 4 59 7 124 7 97 0 118 -3 123 -16z m-1657
-1080 c-3 -3 -12 -4 -19 -1 -8 3 -5 6 6 6 11 1 17 -2 13 -5z m35 -6 c3 -7 18
-11 35 -10 22 1 33 -3 37 -15 4 -10 2 -19 -3 -21 -6 -2 -9 -8 -5 -13 10 -17
23 -9 27 19 3 15 4 -57 4 -159 -2 -136 -5 -190 -15 -202 -9 -11 -10 -17 -2
-22 8 -5 7 -12 -3 -23 -8 -10 -17 -24 -21 -32 -3 -8 -4 -3 -2 13 2 15 -1 27
-5 27 -5 0 -9 -7 -9 -15 0 -8 -5 -15 -11 -15 -6 0 -8 7 -5 15 3 9 -1 18 -9 21
-8 4 -13 9 -11 13 3 4 1 13 -5 21 -6 10 -9 11 -9 3 0 -7 -11 -13 -25 -13 l-25
0 0 178 c1 152 3 174 14 159 13 -17 15 -16 21 11 3 16 5 33 4 38 -5 30 14 49
23 22z m-42 -18 c0 -5 -4 -10 -10 -10 -5 0 -10 5 -10 10 0 6 5 10 10 10 6 0
10 -4 10 -10z m23 -455 c-7 -21 -13 -19 -13 6 0 11 4 18 10 14 5 -3 7 -12 3
-20z m26 -7 c0 -27 -2 -29 -8 -13 -5 11 -6 26 -4 33 8 21 13 13 12 -20z m31
-8 c0 -5 -4 -10 -10 -10 -5 0 -10 5 -10 10 0 6 5 10 10 10 6 0 10 -4 10 -10z
m-123 -26 c-3 -3 -12 -4 -19 -1 -8 3 -5 6 6 6 11 1 17 -2 13 -5z m66 -21 c-13
-2 -33 -2 -45 0 -13 2 -3 4 22 4 25 0 35 -2 23 -4z m1774 -763 c-2 -83 -3 -90
-22 -90 -16 0 -17 2 -5 10 9 5 15 25 16 47 2 86 4 123 9 123 2 0 3 -40 2 -90z
m-32 -120 c-11 -5 -85 -8 -165 -7 l-145 1 145 6 c80 3 154 6 165 7 l20 2 -20
-9z m145 -257 c0 -87 -3 -168 -6 -180 -6 -22 -11 -23 -113 -23 -103 -1 -171
-17 -142 -34 6 -4 11 -35 11 -76 0 -65 -1 -68 -26 -74 -15 -4 -65 -7 -113 -7
-47 -1 -301 -3 -563 -6 l-478 -5 0 -73 c0 -40 -3 -87 -6 -104 l-6 -31 -364 0
-364 0 0 53 0 52 89 -3 89 -3 7 65 c4 36 5 108 3 159 l-5 94 330 6 c182 4 388
7 457 7 l128 0 7 55 c3 30 4 59 0 65 -8 12 -55 11 440 13 l420 2 -3 103 -4
102 106 0 106 0 0 -157z m-686 -678 l7 -35 328 0 c373 0 341 8 341 -91 l0 -59
-220 0 -219 0 -3 -97 -3 -98 -857 -2 -858 -3 0 109 0 109 430 7 430 7 0 88 c0
47 3 90 7 93 3 4 142 7 309 7 l302 0 6 -35z m-1724 -242 l0 -173 -95 0 -94 0
-3 163 c-2 89 -2 167 0 172 1 6 42 10 97 10 l95 0 0 -172z m245 -333 c22 -5
279 -10 578 -10 l538 -1 -3 -112 -3 -112 -80 -2 c-44 -1 -296 -3 -560 -4 -264
-2 -530 -5 -592 -7 l-112 -3 -3 -107 -3 -107 -249 -3 c-175 -2 -253 1 -262 9
-20 17 -17 56 6 79 18 18 20 33 20 153 l0 132 250 0 250 0 0 53 0 52 93 0 c50
0 110 -5 132 -10z m325 -867 c0 -60 -4 -114 -9 -121 -6 -10 -116 -13 -534 -15
l-527 -2 0 98 0 97 355 0 355 0 0 25 0 25 180 0 180 0 0 -107z m-570 -493 l0
-120 -220 0 -220 0 0 120 0 120 220 0 220 0 0 -120z m-480 -275 l0 -95 -435 0
-435 0 0 95 0 95 435 0 435 0 0 -95z m1315 -645 c13 -15 20 -43 24 -98 4 -42
10 -83 14 -89 6 -10 48 -13 150 -13 193 0 187 2 187 -74 0 -33 -3 -78 -6 -98
l-7 -38 -118 0 -118 0 -3 28 -3 27 -268 5 c-148 3 -270 3 -272 0 -2 -3 -1 -47
2 -97 l6 -93 108 0 109 0 0 -59 c0 -33 4 -71 10 -85 l10 -26 160 0 160 0 0
-90 0 -89 103 -3 102 -3 -2 -40 c-1 -22 0 -68 3 -101 l5 -61 57 -7 c31 -4 66
-9 79 -12 l23 -6 0 -233 0 -232 -37 -5 c-21 -3 -69 -4 -108 -3 l-70 2 -3 95
c-3 110 0 108 -109 108 l-63 0 0 90 0 90 -280 0 -280 0 0 95 0 95 -100 0 -100
0 0 110 0 110 -32 1 c-18 1 -106 0 -195 -1 l-163 -2 0 116 0 116 -147 0 c-141
0 -151 1 -232 32 -48 18 -89 37 -94 42 -4 6 -6 41 -5 79 l3 67 -80 1 c-44 1
-94 1 -111 1 l-31 -1 -7 86 c-3 47 -9 89 -12 94 -3 5 -99 9 -215 9 l-209 0 0
90 0 90 1073 0 c1066 0 1074 0 1092 -20z m-2517 -241 c-10 -7 -10 -11 -1 -17
6 -4 14 -25 18 -47 4 -22 9 -47 11 -55 5 -21 98 -76 151 -89 38 -10 42 -15 48
-51 8 -49 -1 -83 -22 -76 -8 3 -57 6 -109 6 l-94 0 0 88 c0 48 -4 92 -8 99 -4
6 -32 15 -62 18 -77 9 -89 13 -70 25 17 11 80 13 105 4 13 -5 14 -8 3 -15 -11
-7 -11 -9 0 -9 7 0 21 8 30 17 16 16 16 16 0 10 -10 -3 -23 -1 -30 6 -7 7 -37
12 -66 13 -29 0 -57 5 -63 11 -15 15 0 43 23 43 14 0 18 5 14 15 -5 13 5 15
65 14 43 -1 65 -5 57 -10z m-220 -80 c21 0 31 -3 24 -6 -6 -2 -10 -9 -7 -13 3
-5 -11 -3 -32 4 -35 12 -38 16 -40 52 l-2 39 11 -37 c9 -35 13 -38 46 -39z
m1152 -272 c0 -29 4 -57 8 -64 16 -25 99 -45 215 -50 l117 -6 0 -67 c0 -78 2
-80 107 -80 55 0 64 -3 79 -24 8 -14 21 -52 27 -85 l12 -61 97 0 97 0 7 -45 6
-45 94 0 94 0 2 -177 3 -178 79 -11 c113 -15 121 -26 112 -163 -3 -57 -6 -132
-6 -165 l0 -61 -80 0 -80 0 -2 60 c-1 33 -3 78 -4 100 -2 22 -3 59 -3 83 l-1
42 -110 0 -110 0 0 100 0 100 -106 0 -105 0 2 100 c1 55 1 101 -2 103 -2 2
-48 42 -102 90 -54 48 -109 92 -123 97 -14 6 -50 10 -80 10 -30 0 -54 4 -54 9
0 4 -21 16 -47 26 -95 36 -108 47 -111 96 -3 35 -14 57 -54 109 l-50 65 -66 5
-67 5 -3 59 c-2 32 -1 64 1 70 3 7 38 10 106 8 l101 -3 0 -52z m-460 -117 c35
-9 38 -14 44 -55 7 -41 10 -45 44 -55 20 -6 69 -15 107 -21 42 -6 75 -17 83
-27 23 -30 14 -70 -24 -109 -35 -34 -37 -35 -91 -29 -37 4 -69 16 -97 35 -27
19 -60 32 -96 36 -85 11 -90 16 -90 88 0 43 -6 75 -20 102 -11 22 -20 43 -20
47 0 9 112 1 160 -12z m363 -350 c46 -16 123 -48 171 -70 60 -27 102 -40 131
-40 24 0 46 -4 50 -9 3 -6 2 -192 -1 -415 l-7 -406 -103 0 -104 0 -2 298 -3
297 -117 3 -116 3 -1 184 c0 102 4 185 9 185 4 0 46 -13 93 -30z m-377 -52
l84 -22 0 -228 0 -228 -27 -2 c-16 -1 -58 -2 -95 -2 l-68 -1 0 253 c0 178 3
252 11 252 6 0 49 -10 95 -22z"/>
<path d="M7438 7296 c-36 -20 -38 -23 -38 -73 l0 -53 -140 0 -140 0 0 -65 0
-65 -125 0 -125 0 0 -165 0 -165 125 0 125 0 0 120 0 120 155 0 155 0 0 40 0
40 310 -2 310 -3 0 82 0 81 -37 -10 c-24 -7 -110 -8 -233 -4 -107 3 -216 6
-242 6 l-48 0 0 70 c0 39 -3 70 -7 69 -5 -1 -25 -11 -45 -23z"/>
<path d="M5638 6780 c-54 -3 -100 -9 -103 -12 -3 -3 -3 -125 1 -272 l7 -266
149 0 148 0 0 280 0 280 -52 -2 c-29 0 -97 -4 -150 -8z"/>
<path d="M2210 5430 l0 -120 193 2 192 3 0 115 0 115 -192 3 -193 3 0 -121z"/>
<path d="M6523 7765 c0 -44 2 -61 4 -37 2 23 2 59 0 80 -2 20 -4 1 -4 -43z"/>
<path d="M7993 6173 c20 -2 54 -2 75 0 20 2 3 4 -38 4 -41 0 -58 -2 -37 -4z"/>
<path d="M4268 2533 c7 -3 16 -2 19 1 4 3 -2 6 -13 5 -11 0 -14 -3 -6 -6z"/>
</g>
</svg>
